# xmcd CD database file
#
# Track frame offsets:
#	150
#	14726
#	37778
#	54583
#	84821
#	103703
#	119687
#	145027
#
# Disc length: 2188 seconds
#
# Revision: 1
# Processed by: cddbd v1.5.2PL0 Copyright (c) Steve Scherf et al.
# Submitted via: CDex 1.51
#
DISCID=61088a08
DTITLE=Louis Myers - Wailin' The Blues
DYEAR=1900
DGENRE=Blues
TTITLE0=Give Me A Drink
TTITLE1=Mean Black Spider
TTITLE2=Sweet Home Chicago
TTITLE3=Going Down South
TTITLE4=Tomorrow Night
TTITLE5=Wailin' The Blues
TTITLE6=Outskirts Of Town
TTITLE7=Re-Consider Baby
EXTD=
EXTT0=
EXTT1=
EXTT2=
EXTT3=
EXTT4=
EXTT5=
EXTT6=
EXTT7=
PLAYORDER=
